<mxfile host="app.diagrams.net" modified="2023-09-18T11:34:22.439Z" agent="Mozilla/5.0 (Macintosh; Intel Mac OS X 10_15_7) AppleWebKit/537.36 (KHTML, like Gecko) Chrome/116.0.0.0 Safari/537.36" version="21.7.1" etag="6qyiZFESMnPgRjP9-bqc" type="github">
  <diagram name="Page-1" id="55D-5u9y_sB4A4yT7TOo">
    <mxGraphModel>
      <root>
        <mxCell id="0" />
        <mxCell id="1" parent="0" />
      </root>
    </mxGraphModel>
  </diagram>
</mxfile>
